<svg width="128" height="128" viewBox="0 0 128 128" fill="none" xmlns="http://www.w3.org/2000/svg">
<rect width="128" height="128" fill="white"/>
<path d="M43.337 85.64C40.2223 85.64 37.4917 85.064 35.145 83.912C32.7983 82.7173 30.9637 81.0747 29.641 78.984C28.361 76.8507 27.721 74.376 27.721 71.56V51.72C27.721 48.8613 28.361 46.3867 29.641 44.296C30.9637 42.2053 32.7983 40.584 35.145 39.432C37.4917 38.2373 40.2223 37.64 43.337 37.64C46.4943 37.64 49.225 38.2373 51.529 39.432C53.8757 40.584 55.689 42.2053 56.969 44.296C58.2917 46.3867 58.953 48.8613 58.953 51.72H49.353C49.353 49.8427 48.8197 48.4133 47.753 47.432C46.729 46.4507 45.257 45.96 43.337 45.96C41.417 45.96 39.9237 46.4507 38.857 47.432C37.833 48.4133 37.321 49.8427 37.321 51.72V71.56C37.321 73.3947 37.833 74.824 38.857 75.848C39.9237 76.8293 41.417 77.32 43.337 77.32C45.257 77.32 46.729 76.8293 47.753 75.848C48.8197 74.824 49.353 73.3947 49.353 71.56H58.953C58.953 74.376 58.2917 76.8507 56.969 78.984C55.689 81.0747 53.8757 82.7173 51.529 83.912C49.225 85.064 46.4943 85.64 43.337 85.64ZM81.328 85.64C78.0427 85.64 75.1627 85.064 72.688 83.912C70.256 82.76 68.3573 81.1387 66.992 79.048C65.6693 76.9147 65.008 74.4187 65.008 71.56H74.352C74.352 73.3093 74.9707 74.7173 76.208 75.784C77.488 76.808 79.1947 77.32 81.328 77.32C83.4187 77.32 85.04 76.8293 86.192 75.848C87.3867 74.824 87.984 73.48 87.984 71.816C87.984 70.4933 87.6 69.32 86.832 68.296C86.064 67.2293 84.9333 66.5253 83.44 66.184L77.744 64.84C74.0747 63.9867 71.152 62.344 68.976 59.912C66.8427 57.4373 65.776 54.4933 65.776 51.08C65.776 46.8987 67.12 43.6133 69.808 41.224C72.5387 38.8347 76.2507 37.64 80.944 37.64C85.6373 37.64 89.3707 38.856 92.144 41.288C94.9173 43.6773 96.304 46.92 96.304 51.016H86.96C86.96 49.3947 86.4267 48.136 85.36 47.24C84.2933 46.3013 82.8213 45.832 80.944 45.832C79.1093 45.832 77.68 46.28 76.656 47.176C75.632 48.072 75.12 49.2667 75.12 50.76C75.12 53.192 76.592 54.7493 79.536 55.432L85.424 56.776C89.0933 57.5867 91.9947 59.3573 94.128 62.088C96.304 64.776 97.392 68.0187 97.392 71.816C97.392 74.5893 96.7307 77.0213 95.408 79.112C94.128 81.2027 92.272 82.824 89.84 83.976C87.4507 85.0853 84.6133 85.64 81.328 85.64Z" fill="black"/>
</svg>
